<svg width="16" height="16" viewBox="0 0 16 16" fill="none" xmlns="http://www.w3.org/2000/svg">
<rect width="16" height="16" fill="#F5F5F5"/>
<g id="&#208;&#147;&#208;&#187;&#208;&#176;&#208;&#178;&#208;&#189;&#208;&#176;&#209;&#143;" clip-path="url(#clip0_0_1)">
<rect width="1920" height="3261" transform="translate(-1110 -3052)" fill="#FBFBFB"/>
<g id="Frame 52" clip-path="url(#clip1_0_1)">
<rect width="1920" height="373" transform="translate(-1110 -164)" fill="#4B565E"/>
<g id="Newsletter">
<g id="Dark/Newsletter">
<g id="Dark/Icon">
<g id="vuesax/linear/sms">
<g id="sms">
<path id="Vector" d="M11.3333 13.6668H4.66659C2.66659 13.6668 1.33325 12.6668 1.33325 10.3335V5.66683C1.33325 3.3335 2.66659 2.3335 4.66659 2.3335H11.3333C13.3333 2.3335 14.6666 3.3335 14.6666 5.66683V10.3335C14.6666 12.6668 13.3333 13.6668 11.3333 13.6668Z" stroke="white" stroke-opacity="0.6" stroke-miterlimit="10" stroke-linecap="round" stroke-linejoin="round"/>
<path id="Vector_2" d="M11.3334 6L9.24674 7.66667C8.56008 8.21333 7.43341 8.21333 6.74674 7.66667L4.66675 6" stroke="white" stroke-opacity="0.6" stroke-miterlimit="10" stroke-linecap="round" stroke-linejoin="round"/>
</g>
</g>
</g>
<rect x="-23.5" y="-15.5" width="533" height="47" rx="23.5" stroke="#F0BA4E"/>
</g>
</g>
</g>
</g>
<defs>
<clipPath id="clip0_0_1">
<rect width="1920" height="3261" fill="white" transform="translate(-1110 -3052)"/>
</clipPath>
<clipPath id="clip1_0_1">
<rect width="1920" height="373" fill="white" transform="translate(-1110 -164)"/>
</clipPath>
</defs>
</svg>
